Coordinates
version=1
nRows=13
nColumns=22
inDegrees=yes

Units are S.I. units (second, meters, Newtons, ...)
If the header above contains a line with 'inDegrees', this indicates whether rotational values are in degrees (yes) or radians (no).

endheader
time	pelvis_tilt	pelvis_list	pelvis_rotation	pelvis_tx	pelvis_ty	pelvis_tz	hip_flexion_r	hip_adduction_r	hip_rotation_r	knee_angle_r	ankle_angle_r	subtalar_angle_r	hip_flexion_l	hip_adduction_l	hip_rotation_l	knee_angle_l	ankle_angle_l	subtalar_angle_l	lumbar_extension	lumbar_bending	lumbar_rotation
      2.18000000	     -9.97504285	      2.25859201	    -28.65913403	      0.02187671	      0.90741726	      0.33209609	     32.84904771	      0.21127167	     -7.40967797	    -19.93905334	      0.05202880	      8.40337229	     -6.80369735	     -4.97996130	      7.75459861	    -28.80678157	    -16.41722672	     15.68520788	      0.73990310	      3.22982354	     -2.18656281
      2.19000000	     -9.61539477	      2.71678599	    -29.03202764	      0.04047811	      0.90744228	      0.34393243	     32.02076254	     -0.00740978	     -7.86684327	    -17.56531749	     -0.90958854	      8.49867405	     -6.25476195	     -4.35097377	      7.45092492	    -31.62547816	    -17.23667556	     15.76324493	      1.06182145	      2.88293438	     -1.71530507
      2.20000000	     -9.21341443	      3.01848489	    -29.48504987	      0.05881162	      0.90656007	      0.35588687	     31.26096136	     -0.08878877	     -8.23267227	    -16.09891153	     -1.60679455	      8.52043229	     -5.61895428	     -3.88894558	      6.92240595	    -34.82768895	    -17.56484075	     15.76566283	      1.21509866	      2.67146959	     -1.11790396
      2.21000000	     -8.81185751	      3.16268556	    -30.00702828	      0.07682564	      0.90464070	      0.36790005	     30.61285616	     -0.02891984	     -8.43859652	    -15.53944958	     -1.94526665	      8.42524521	     -4.85519782	     -3.65266020	      6.13048215	    -38.40379521	    -17.35003143	     15.50112694	      1.23425091	      2.62086919	     -0.41937326
      2.22000000	     -8.33454136	      3.13967265	    -30.63117050	      0.09459352	      0.90188510	      0.38003698	     29.89939970	      0.16802328	     -8.30689598	    -15.66963934	     -1.95923889	      8.18854757	     -4.15042207	     -3.61208965	      5.16923186	    -42.13576519	    -16.78204638	     15.32213352	      1.03927652	      2.68921155	      0.41882917
      2.23000000	     -7.79457127	      2.98624762	    -31.30135796	      0.11214928	      0.89825629	      0.39210596	     29.18621720	      0.42999155	     -7.89712361	    -16.51680281	     -1.49625098	      7.54680978	     -3.46940917	     -3.73687953	      4.13118461	    -45.99340267	    -15.90304698	     14.95277507	      0.66024594	      2.85194846	      1.32197521
      2.24000000	     -7.20301215	      2.68969382	    -32.03334804	      0.12947973	      0.89385272	      0.40413664	     28.42514196	      0.79294733	     -7.16804277	    -17.92324158	     -0.54096011	      6.67305604	     -2.84031287	     -4.05288967	      3.02445980	    -49.90349707	    -14.83842247	     14.72661835	      0.09830874	      3.11572680	      2.30912093
      2.25000000	     -6.56427200	      2.27767454	    -32.78090760	      0.14661682	      0.88875403	      0.41601903	     27.63192345	      1.21441058	     -6.23793579	    -19.82887959	      1.04833947	      5.41096575	     -2.24443702	     -4.53166189	      1.91726784	    -53.83345421	    -13.59034531	     14.50506617	     -0.62637358	      3.44873007	      3.32272948
      2.26000000	     -5.92107096	      1.76560436	    -33.54527834	      0.16349661	      0.88303021	      0.42773041	     26.89173481	      1.70943200	     -5.20732478	    -22.23732337	      3.26887679	      3.85207868	     -1.62650375	     -5.18346917	      0.81954094	    -57.76362961	    -12.29563237	     14.29279903	     -1.47018553	      3.85173333	      4.39380221
      2.27000000	     -5.28338854	      1.17407642	    -34.25756077	      0.18014667	      0.87685203	      0.43916042	     26.18409378	      2.24408635	     -4.20254420	    -25.01830964	      6.08528601	      2.05831953	     -0.94894264	     -5.98441042	     -0.17214728	    -61.67009761	    -10.90319873	     14.04747962	     -2.40949762	      4.30586378	      5.41086998
      2.28000000	     -4.69519999	      0.54151438	    -34.93677574	      0.19647741	      0.87036045	      0.45032549	     25.56713675	      2.82374327	     -3.27027800	    -28.09341153	      9.27264082	      0.25570774	     -0.13503145	     -6.91770944	     -1.05680053	    -65.52593870	     -9.51064935	     13.76375658	     -3.38263581	      4.79255574	      6.43237187
      2.29000000	     -4.17767762	     -0.10253702	    -35.54892711	      0.21248755	      0.86379859	      0.46116696	     25.00787078	      3.42197269	     -2.44942803	    -31.27465086	     12.59136824	     -1.43028769	      0.87257487	     -7.95692480	     -1.78139659	    -69.29133225	     -8.10313237	     13.41194916	     -4.34998384	      5.29553308	      7.40997016
      2.30000000	     -3.76895110	     -0.71605822	    -36.09911015	      0.22816953	      0.85741601	      0.47167027	     24.49208121	      4.02397590	     -1.72170237	    -34.37227650	     15.81813212	     -2.83092563	      2.14902653	     -9.06294697	     -2.32707444	    -72.91115273	     -6.72484129	     12.99107165	     -5.24240544	      5.80629939	      8.33617442
